<?xml version="1.0" encoding="UTF-8" standalone="no"?>
<svg
   width="64"
   height="64"
   viewBox="0 0 16.933 16.933"
   version="1.1"
   id="svg14"
   sodipodi:docname="salix-codecs-installer.svg"
   inkscape:version="1.1.2 (0a00cf5339, 2022-02-04)"
   xmlns:inkscape="http://www.inkscape.org/namespaces/inkscape"
   xmlns:sodipodi="http://sodipodi.sourceforge.net/DTD/sodipodi-0.dtd"
   xmlns="http://www.w3.org/2000/svg"
   xmlns:svg="http://www.w3.org/2000/svg">
  <defs
     id="defs18" />
  <sodipodi:namedview
     id="namedview16"
     pagecolor="#ffffff"
     bordercolor="#666666"
     borderopacity="1.0"
     inkscape:pageshadow="2"
     inkscape:pageopacity="0.0"
     inkscape:pagecheckerboard="0"
     showgrid="false"
     inkscape:zoom="11.234375"
     inkscape:cx="31.955494"
     inkscape:cy="31.955494"
     inkscape:window-width="1920"
     inkscape:window-height="1022"
     inkscape:window-x="0"
     inkscape:window-y="0"
     inkscape:window-maximized="1"
     inkscape:current-layer="svg14" />
  <path
     d="M1.587 5.292v9.26c0 .147.119.265.265.265h13.23a.264.264 0 0 0 .264-.265v-9.26H1.587z"
     opacity=".9"
     fill="#74c9d0"
     stroke="#40a0a6"
     stroke-width=".529"
     paint-order="stroke markers fill"
     id="path2"
     style="fill:#f2793f;fill-opacity:1;stroke:#f27909;stroke-opacity:1" />
  <path
     d="M1.852 2.117a.264.264 0 0 0-.265.264v2.91h13.759v-2.91a.264.264 0 0 0-.265-.264z"
     fill="#333"
     stroke="#1e1e1e"
     stroke-width=".529"
     paint-order="stroke markers fill"
     id="path4" />
  <path
     d="M1.587 5.292v9.26c0 .147.119.265.265.265h13.23a.264.264 0 0 0 .264-.265v-9.26H1.587z"
     fill="#74c9d0"
     paint-order="stroke markers fill"
     id="path6"
     style="fill:#f29b3f;fill-opacity:1" />
  <path
     d="M1.852 2.117a.264.264 0 0 0-.265.264v2.91h13.759v-2.91a.264.264 0 0 0-.265-.264z"
     fill="#333"
     paint-order="stroke markers fill"
     id="path8" />
  <path
     d="M4.895 2.117h1.852l1.058 1.587H5.953zm0 3.175h1.852l1.058-1.588H5.953zm5.159-3.175h1.852l1.059 1.587h-1.852zm0 3.175h1.852l1.059-1.588h-1.852z"
     fill="#fff"
     paint-order="stroke markers fill"
     id="path10" />
  <path
     fill="#329196"
     fill-opacity=".902"
     fill-rule="evenodd"
     paint-order="fill markers stroke"
     d="M1.323 5.291H15.61v.265H1.323z"
     id="path12"
     style="fill:#f2793f;fill-opacity:0.90196079" />
  <path
     id="path38"
     style="fill:#333333;fill-opacity:1;stroke-width:0.999999"
     d="M 11.24457,6.6436621 9.3925236,7.1712682 v 1.0603796 2.6524992 a 2.1170001,1.587 0 0 0 -1.586952,-0.536908 2.1170001,1.587 0 0 0 -2.1171417,1.587469 2.1170001,1.587 0 0 0 2.1171417,1.586952 2.1170001,1.587 0 0 0 2.1171417,-1.586952 2.1170001,1.587 0 0 0 -0.00103,-0.03876 V 8.0802387 L 11.24457,7.7014579 Z" />
</svg>
